<svg xmlns="http://www.w3.org/2000/svg" viewBox="0 0 149.13 36.3"><defs><style>.cls-1,.cls-3{fill:#6f6f6e;}.cls-2{fill:#ae0d21;}.cls-3{fill-rule:evenodd;}</style></defs><g id="Vrstva_2" data-name="Vrstva 2"><g id="Vrstva_1-2" data-name="Vrstva 1"><path class="cls-1" d="M15.89,33.62H27.23V25.81h2.68V36.3h-14V33.62Z"/><path class="cls-1" d="M0,20.41v-14H15.73V9h-13V20.41Z"/><path class="cls-2" d="M0,36.3V24H12.31V36.3Zm3.58-3.58H8.72V27.58H3.58v5.14Z"/><path class="cls-3" d="M142.7,17.42a3.22,3.22,0,0,1,5.49-2.27,3.22,3.22,0,1,1-5.49,2.27Zm5.9,0a2.69,2.69,0,0,0-4.59-1.9,2.57,2.57,0,0,0-.79,1.9,2.69,2.69,0,0,0,4.6,1.91,2.64,2.64,0,0,0,.78-1.91Zm-1.68,1.94-1-1.7h-.57v1.7h-.57v-4h1c1,0,1.43.36,1.43,1.1a1.09,1.09,0,0,1-.77,1.07l1.08,1.79Zm-1.58-3.47V17.2h.37a1.36,1.36,0,0,0,.74-.14.62.62,0,0,0,.19-.54c0-.43-.28-.65-.85-.65h-.45Z"/><path class="cls-2" d="M29.82,7.89l-1.34,1.9A4.1,4.1,0,0,0,27,9,6.36,6.36,0,0,0,25,8.64a4.33,4.33,0,0,0-3.5,1.54,6.4,6.4,0,0,0-1.29,4.23,5.74,5.74,0,0,0,1.32,4.08,4.81,4.81,0,0,0,3.67,1.4,6.06,6.06,0,0,0,3.67-1.41l1.06,2.28a9.76,9.76,0,0,1-5.38,1.4,6.86,6.86,0,0,1-5.15-2.09,7.75,7.75,0,0,1-2-5.66,8.13,8.13,0,0,1,2.11-5.84,7.65,7.65,0,0,1,5.78-2.2,7.64,7.64,0,0,1,2.57.49,7.69,7.69,0,0,1,2,1Z"/><path class="cls-1" d="M140.06,35.83V24.54h0v-.23h0a1.23,1.23,0,0,0-.06-.39,1.09,1.09,0,0,0-.1-.25h0a2.14,2.14,0,0,0-1.28-.88l-.22-.05-.22,0-.23,0a3.71,3.71,0,0,0-.47,0h-.41l-.15,0h0a3.71,3.71,0,0,0-.58.11h0l-.1,0h0a3.24,3.24,0,0,0-.33.13,2.11,2.11,0,0,0-.3.16h0a1.44,1.44,0,0,0-.75,1.16v12h-3.62v-12h0a1.23,1.23,0,0,0-.06-.39,1.12,1.12,0,0,0-.11-.25,2.12,2.12,0,0,0-1.31-.88h0l-.15,0h0l-.15,0a4.56,4.56,0,0,0-.82-.08h0l-.38,0h-.13a3.87,3.87,0,0,0-.61.12h0a2.06,2.06,0,0,0-.35.12l-.31.14h0a1.39,1.39,0,0,0-.8,1.21v12h-3.62V19.58H126v.75l.42-.17c.25-.1.51-.18.78-.26a7.41,7.41,0,0,1,4.2,0h0l.16.06.17.06h0a5.43,5.43,0,0,1,.8.4h0l.13.08.12.08a5.32,5.32,0,0,1,.47.36l.39-.26c.19-.11.4-.21.61-.31a8.76,8.76,0,0,1,3.63-.79h.23a7.6,7.6,0,0,1,1.08.11l.21,0h0a7.17,7.17,0,0,1,1,.3h0l.33.14.32.16a4.75,4.75,0,0,1,1.43,1.17h0a3.52,3.52,0,0,1,.27.37h0a4.23,4.23,0,0,1,.25.42,5.88,5.88,0,0,1,.6,2.72V36.29h-3.62v-.46Z"/><path class="cls-1" d="M117.41,19.58h3.16V36.29H117v-.63l-.1,0a9.82,9.82,0,0,1-1.06.3h-.1l-.26,0h0l-.31.06-.31,0a10.67,10.67,0,0,1-1.38.1h-.24a7.72,7.72,0,0,1-2.07-.27l-.32-.1a7.06,7.06,0,0,1-1.53-.71h0l-.09-.06h0l-.09-.06h0l-.46-.34h0l-.09-.07h0l-.09-.07h0c-.14-.11-.28-.24-.42-.37h0v0h0l-.17-.16h0l-.1-.11c-.09-.09-.17-.19-.25-.28a7.56,7.56,0,0,1-1-1.63h0l0-.06h0l0-.07h0l-.15-.35h0a3.66,3.66,0,0,1-.15-.43c0-.15-.09-.3-.13-.45a9.83,9.83,0,0,1-.31-2.3h0v-.23h0a11,11,0,0,1,.31-2.63c0-.14.08-.27.11-.39h0a8.26,8.26,0,0,1,.84-1.86h0l.06-.11h0L107,23h0c.12-.19.25-.37.39-.55h0l.08-.1h0l.08-.09h0l.27-.31h0l.2-.2h0l.07-.06h0a2.73,2.73,0,0,1,.25-.23h0l.31-.27a7.11,7.11,0,0,1,1.76-1.06h0l.37-.14a2.29,2.29,0,0,1,.37-.12h0a7.5,7.5,0,0,1,2-.27h.23a9.58,9.58,0,0,1,1.55.15l.27.05h0a7.57,7.57,0,0,1,1.3.4h0l.07,0h0l.07,0h0l.21.1v-.77h.46Zm-7.2,4.73a6,6,0,0,0-.62,1.81,15,15,0,0,0-.21,2v0h0a8.76,8.76,0,0,0,.08,1.18q0,.07,0,.18a5.15,5.15,0,0,0,.23.84h0c0,.09.07.18.1.25h0c0,.09.07.17.11.25h0a4.14,4.14,0,0,0,.78,1.07,3.91,3.91,0,0,0,1.32.84,5,5,0,0,0,1.69.28h0A6.08,6.08,0,0,0,115.1,33l.21-.05a4.72,4.72,0,0,0,1-.38h0l.06,0h0l.06,0,.3-.18a.91.91,0,0,0,.16-.11l.07-.05V24.31h0v0a.88.88,0,0,0-.24-.55.69.69,0,0,0-.11-.13l-.14-.12a2.81,2.81,0,0,0-.46-.29h0l-.29-.13a2.19,2.19,0,0,0-.33-.12h0a6.38,6.38,0,0,0-1.83-.29h-.18a4,4,0,0,0-2,.46,3.16,3.16,0,0,0-1.17,1.21Z"/><path class="cls-1" d="M103.36,28.65H92.85a5.55,5.55,0,0,0,.09.83h0a4.43,4.43,0,0,0,.24.92h0a1.45,1.45,0,0,0,.1.25c0,.08.07.16.11.25A4.11,4.11,0,0,0,94.16,32h0l.16.15.17.14h0a3.76,3.76,0,0,0,1,.54h0l.38.12.41.08a5.08,5.08,0,0,0,.89.08h.15l.7-.05h0l.19,0a4.8,4.8,0,0,0,.94-.24h0l0,0a1,1,0,0,0,.2-.08h0l.2-.08.2-.1h0a4.63,4.63,0,0,0,.91-.63l.21-.18.21-.18.14.24.14.23,1.13,2,.09.15.09.15-.13.13-.12.12h0l-.11.1-.11.09h0a4.37,4.37,0,0,1-.67.46h0l-.14.07-.16.08a8.22,8.22,0,0,1-.89.37h0l-.24.09-.25.08h0a10.29,10.29,0,0,1-1.3.3h0l-.26,0-.27,0a11.73,11.73,0,0,1-1.2.07h-.23a8.53,8.53,0,0,1-1.46-.13l-.23,0a7.35,7.35,0,0,1-1.13-.34h0l-.36-.15-.35-.18a7.33,7.33,0,0,1-1.65-1.22h0L91.28,34h0v0h0c-.15-.15-.29-.32-.43-.49h0l-.08-.09h0l-.08-.09h0L90.42,33h0l-.12-.18h0c-.12-.19-.22-.38-.32-.57a6.28,6.28,0,0,1-.27-.59,9.37,9.37,0,0,1-.63-3.53h0v-.22h0c0-.36,0-.71.07-1.05,0-.13,0-.27,0-.39a9.34,9.34,0,0,1,.48-1.89h0l0-.07h0l0-.07h0A3.92,3.92,0,0,1,89.9,24l.09-.22h0l.07-.15.19-.34a8.27,8.27,0,0,1,1.24-1.6h0l.31-.29h0l.32-.27a7.06,7.06,0,0,1,1.75-1.06h0l.37-.14a2,2,0,0,1,.37-.12h0a7.61,7.61,0,0,1,2-.27h.24a8.3,8.3,0,0,1,.87.05l.34,0a8.07,8.07,0,0,1,1.61.39h0l.06,0h0l.06,0h0l.31.13h0a2.09,2.09,0,0,1,.3.14l.29.15a6.64,6.64,0,0,1,1.34,1h0a2.23,2.23,0,0,1,.26.27h0a3.48,3.48,0,0,1,.24.28,6.16,6.16,0,0,1,1,1.65h0q.06.16.12.36c0,.12.08.24.11.36a8.49,8.49,0,0,1,.25,2.06v0h0c0,.16,0,.31,0,.46h0v.07h0c0,.12,0,.24,0,.37h0l0,.12h0l0,.11h0c0,.2-.08.4-.13.59l0,.17,0,.17h-.34Zm-6.57-6h-.13l-.3,0h-.08l-.09,0h0l-.23,0h0l-.11,0-.11,0h0a4.33,4.33,0,0,0-.54.21h0a2.82,2.82,0,0,0-.48.27h0a4.46,4.46,0,0,0-.43.33A4.1,4.1,0,0,0,93,25.77h7.41l0-.16a2.09,2.09,0,0,0-.08-.36,3.41,3.41,0,0,0-.92-1.58,3.33,3.33,0,0,0-.73-.55L98.33,23a3,3,0,0,0-.32-.12h0a3.57,3.57,0,0,0-1.09-.2Z"/><path class="cls-1" d="M80,16h3.16V30h0v.21h0c0,.16,0,.32,0,.47h0l0,.15a4.34,4.34,0,0,0,.11.69h0v0h0v0h0s0,.08,0,.13h0a.83.83,0,0,1,0,.12c0,.05,0,.09,0,.12a2.32,2.32,0,0,0,.27.47h0l0,0h0l0,0h0l.11.11h0l0,0h0l.12.09h0l.14.08h0l.16.08a2.93,2.93,0,0,0,1.09.18h.11l.27,0h.1l.47-.09h.07l.09,0h0l.11,0,.12,0a5.09,5.09,0,0,0,.6-.25l.28-.13.27-.13.05.3,0,.3.4,2.38,0,.2,0,.21-.21,0-.18.05h0l-.06,0h-.07l-.35.08-.25,0-.26.05h0l-.37.06h0l-.38.05a16.25,16.25,0,0,1-2,.12h0a5,5,0,0,1-1-.1l-.15,0h0a4.49,4.49,0,0,1-.73-.25h0l-.23-.11-.23-.13h0a4.86,4.86,0,0,1-1.07-.87l-.06-.07h0l-.13-.15h0l-.17-.22a5.12,5.12,0,0,1-.67-1.24h0l-.09-.26c0-.09,0-.18-.07-.27a6,6,0,0,1-.17-1.49V16H80Z"/><path class="cls-2" d="M29.77,7.9,28.43,9.81A3.78,3.78,0,0,0,27,9a6.05,6.05,0,0,0-2-.37,4.32,4.32,0,0,0-3.5,1.54,6.4,6.4,0,0,0-1.3,4.23,5.71,5.71,0,0,0,1.33,4.07,4.77,4.77,0,0,0,3.67,1.4,6.13,6.13,0,0,0,3.67-1.4l1.06,2.27a9.72,9.72,0,0,1-5.39,1.41,6.91,6.91,0,0,1-5.15-2.09,7.79,7.79,0,0,1-2-5.66,8.07,8.07,0,0,1,2.11-5.84,8,8,0,0,1,8.34-1.71,7.36,7.36,0,0,1,2,1Z"/><path class="cls-2" d="M71.53,22.18c-4.18-.11-7.33-4-7.44-7.65a7.81,7.81,0,0,1,2-6.1,6.67,6.67,0,0,1,4.88-2,7,7,0,0,1,5.13,1.85,6.26,6.26,0,0,1,1.8,4.7v1.66H66.69c.06,3.43,3.49,5.5,5.92,5.44H86.19v2.15ZM71.14,8.67a4.24,4.24,0,0,0-3,1.17,4.31,4.31,0,0,0-1.33,2.78h8.48a3.86,3.86,0,0,0-1-2.75,4,4,0,0,0-3.07-1.2Z"/><path class="cls-2" d="M48.06,0h2.71V7a10.87,10.87,0,0,1,3.83-.63c4.47,0,7.18,3.47,7.18,7.75,0,4.76-3.09,8-7.89,8a8.21,8.21,0,0,1-3.12-.71v.71H48.06V0Zm2.71,9.72v9.16a5.85,5.85,0,0,0,3.37,1c3.31,0,4.79-2.79,4.79-5.78,0-3.16-1.66-5.47-5-5.47a5.67,5.67,0,0,0-3.17,1.06Z"/><path class="cls-2" d="M32.63,6.38h2.7V16.59a2.74,2.74,0,0,0,3,2.94c1.58,0,3.95-.84,3.95-2.75V6.38H45v15.8h-2.7V20.94a7.12,7.12,0,0,1-4.21,1.24c-2.54,0-5.45-1.65-5.45-5V6.38Z"/></g></g></svg>